<svg xmlns="http://www.w3.org/2000/svg" width="319.511" height="302.282" viewBox="0 0 319.511 302.282">
  <path id="Path_5" data-name="Path 5" d="M224.587,57.9q-.722-.555-1.418-1.07L204.792,3.8Q203.12,0,198.254,0H180.009a5.169,5.169,0,0,0-5.169,5.169V31.358q-4.583-1.723-9.085-3.227L157.324,3.8Q155.651,0,150.785,0H132.54q-5.169,0-5.169,5.169V17.893c-.553-.052-1.091-.119-1.658-.158l-.114-.021.012.015c-1.58-.108-3.2-.178-4.894-.178h-.126a36.98,36.98,0,0,0-17.975,4.808c-8.132,4.554-21.3,11.29-24.471,9.057-2.576-1.817-8.131-3.521-12.588-4.684a58.458,58.458,0,0,0-20.705-3.688q-23.11,0-33.981,12.315T0,78.235q0,31.017,11.024,43.408c7.349,8.26,17.455,12.391,33.064,12.391,1.349,0,8.234,36.914,10.939,47.493l2.1,29.275v34.97a5.169,5.169,0,0,0,5.169,5.169h20.07a5.169,5.169,0,0,0,5.169-5.169V226.859s6.026-.541,9.889.921l.423,17.232a5.269,5.269,0,0,0,.532,4.333,4.26,4.26,0,0,0,3.725,1.6h20.829q4.712,0,5.929-4.865l-.139-16.836c8.335-.016,41.059,1.1,50.857.667l-.009,16.169q.912,4.866,5.778,4.865h20.982a4.261,4.261,0,0,0,3.725-1.6,4.942,4.942,0,0,0,.38-4.333l-.348-16.955c2.1-.16,8.306-.328,10.382-.5v18.215a5.17,5.17,0,0,0,5.169,5.169H245.71a5.17,5.17,0,0,0,5.17-5.17S268.866,177.977,273,140.433C276.488,108.765,249.837,77.325,224.587,57.9ZM120.734,95.7a7.128,7.128,0,0,1-7.035-4.65q-2.027-4.651-2.027-18.005t2.027-18a7.127,7.127,0,0,1,7.035-4.65,7.256,7.256,0,0,1,5.218,1.922,8.538,8.538,0,0,1,1.876,2.728q2.086,4.651,2.087,18t-2.087,18.005a8.532,8.532,0,0,1-1.876,2.727A7.256,7.256,0,0,1,120.734,95.7Z" transform="matrix(0.978, 0.208, -0.208, 0.978, 52.174, 0)" fill="#88eab7"/>
</svg>