<svg xmlns="http://www.w3.org/2000/svg" width="501" height="307.645" viewBox="0 0 501 307.645">
  <g id="Group_29" data-name="Group 29" transform="translate(85 -959)">
    <path id="Intersection_1" data-name="Intersection 1" d="M-652.505,1023.937c-5.387-49.013,35.78-97.673,74.785-127.741q1.115-.859,2.19-1.655l28.387-82.07q2.584-5.885,10.1-5.883h28.183a7.992,7.992,0,0,1,7.985,8v40.533q7.079-2.666,14.033-4.994l13.024-37.656q2.584-5.885,10.1-5.883h28.184q7.984,0,7.985,8v19.693c.854-.08,1.686-.184,2.561-.245l.175-.033-.019.023c2.441-.167,4.944-.275,7.56-.275h.194a57.033,57.033,0,0,1,27.766,7.441c12.561,7.048,32.909,17.474,37.8,14.018,3.979-2.812,12.559-5.45,19.444-7.25a90.143,90.143,0,0,1,31.983-5.709q35.7,0,52.491,19.06t16.793,66.36q0,48.006-17.028,67.184c-11.352,12.784-26.963,19.177-51.074,19.177-1.42,0-6.812,26.534-11.425,48.619l-325.658,51.579C-642.844,1083.633-649.716,1049.317-652.505,1023.937Zm227.145-136.383a13.2,13.2,0,0,0-2.9,4.222q-3.222,7.2-3.224,27.867t3.224,27.867a13.2,13.2,0,0,0,2.9,4.221,11.194,11.194,0,0,0,8.06,2.976q7.737,0,10.867-7.2t3.131-27.867q0-20.668-3.131-27.867t-10.867-7.2A11.2,11.2,0,0,0-425.361,887.554Z" transform="translate(567.983 152.413)" fill="#343457"/>
    <g id="Ellipse_4" data-name="Ellipse 4" transform="translate(352 1100)" fill="#343457" stroke="#707070" stroke-width="1">
      <circle cx="5" cy="5" r="5" stroke="none"/>
      <circle cx="5" cy="5" r="4.5" fill="none"/>
    </g>
    <g id="Ellipse_5" data-name="Ellipse 5" transform="translate(362 1079)" fill="#343457" stroke="#707070" stroke-width="1">
      <circle cx="10.5" cy="10.5" r="10.5" stroke="none"/>
      <circle cx="10.5" cy="10.5" r="10" fill="none"/>
    </g>
    <g id="Ellipse_6" data-name="Ellipse 6" transform="translate(373 1036)" fill="#343457" stroke="#707070" stroke-width="1">
      <circle cx="21.5" cy="21.5" r="21.5" stroke="none"/>
      <circle cx="21.5" cy="21.5" r="21" fill="none"/>
    </g>
  </g>
</svg>
