<svg xmlns="http://www.w3.org/2000/svg" width="96" height="95" viewBox="0 0 96 95">
  <g id="Group_31" data-name="Group 31" transform="translate(-952 -1418)">
    <ellipse id="Ellipse_2" data-name="Ellipse 2" cx="48" cy="47.5" rx="48" ry="47.5" transform="translate(952 1418)" fill="#88eab7"/>
    <g id="Group_6" data-name="Group 6" transform="translate(966.441 1434.938)">
      <path id="Path_19" data-name="Path 19" d="M67.555,209.314l-1.33-2.3a1.33,1.33,0,0,0-1.817-.487l-13.433,7.756H17.113L3.68,206.524a1.33,1.33,0,0,0-1.816.487l-1.33,2.3a3.994,3.994,0,0,0,1.46,5.45l13.433,7.756v17.026a3.994,3.994,0,0,0,3.989,3.989H48.672a3.994,3.994,0,0,0,3.989-3.989V222.519l13.433-7.756a4,4,0,0,0,1.46-5.45Zm-34.1,31.561L50,224.33v6.877l-9.668,9.668ZM50,220.569,29.7,240.875H22.818l23.936-23.936H50Zm-28.285-3.63-3.63,3.63v-3.63ZM3.324,212.46a1.338,1.338,0,0,1-.487-1.817l.665-1.152,11.925,6.885v3.071Zm14.763,22.508,4.784-4.784A1.33,1.33,0,1,0,20.99,228.3l-2.9,2.9V224.33l7.391-7.391h6.877l-2.9,2.9a1.33,1.33,0,1,0,1.881,1.881l4.783-4.783h6.877l-23.9,23.9a1.331,1.331,0,0,1-1.01-1.289Zm30.585,5.907H44.095L50,234.968v4.577a1.331,1.331,0,0,1-1.33,1.33Zm16.709-29.223a1.319,1.319,0,0,1-.616.808l-12.1,6.988v-3.071l11.925-6.885.665,1.152A1.319,1.319,0,0,1,65.381,211.652Z" transform="translate(0 -182.365)" fill="#343457"/>
      <path id="Path_20" data-name="Path 20" d="M191.234,37.293l-.386,2.942a2.633,2.633,0,0,0,.225,1.644,2.659,2.659,0,0,0,3.554,1.226l2.721-1.325,2.8,1.334a2.66,2.66,0,0,0,3.776-2.766l-.419-3,2.057-2.169a2.659,2.659,0,0,0-1.388-4.529l-2.982-.528L199.71,27.4h0a2.655,2.655,0,0,0-4.674.021l-1.424,2.673-2.991.556a2.656,2.656,0,0,0-1.49,4.465Zm-.146-4.028,3.639-.676a1.33,1.33,0,0,0,.931-.682l1.718-3.234,1.784,3.282a1.329,1.329,0,0,0,.936.674l3.616.638c-.02.018-.039.038-.058.057l-2.521,2.659a1.33,1.33,0,0,0-.352,1.1l.511,3.633-3.38-1.61a1.329,1.329,0,0,0-1.154,0l-3.3,1.607q.01-.047.016-.1L193.954,37a1.33,1.33,0,0,0-.361-1.1l-2.55-2.636Z" transform="translate(-163.336 -26.013)" fill="#343457"/>
      <path id="Path_21" data-name="Path 21" d="M246.55,174.985v6.164a1.33,1.33,0,0,0,2.66,0v-6.164a1.33,1.33,0,1,0-2.66,0Z" transform="translate(-213.764 -154.022)" fill="#343457"/>
      <path id="Path_22" data-name="Path 22" d="M124.337,149.07a1.33,1.33,0,0,0,.487,1.816c2.828,1.633,4.678,5.574,4.834,8.442a1.33,1.33,0,0,0,1.327,1.258l.073,0a1.33,1.33,0,0,0,1.256-1.4c-.2-3.614-2.375-8.416-6.16-10.6A1.33,1.33,0,0,0,124.337,149.07Z" transform="translate(-107.648 -132.129)" fill="#343457"/>
      <path id="Path_23" data-name="Path 23" d="M26.41,65.663l2.756,1.071,1.07,2.754a2.42,2.42,0,0,0,4.513,0l1.071-2.756,2.754-1.07a2.42,2.42,0,0,0,0-4.513L35.819,60.08l-1.07-2.754a2.42,2.42,0,0,0-4.513,0L29.166,60.08l-2.754,1.07a2.42,2.42,0,0,0,0,4.513Zm4.265-3.316a1.33,1.33,0,0,0,.758-.758l1.06-2.728,1.06,2.728a1.33,1.33,0,0,0,.758.758l2.728,1.06-2.728,1.06a1.33,1.33,0,0,0-.758.758l-1.06,2.728-1.06-2.728a1.33,1.33,0,0,0-.758-.758l-2.728-1.06Z" transform="translate(-21.557 -51.821)" fill="#343457"/>
      <path id="Path_24" data-name="Path 24" d="M327.776,160.583l.073,0a1.33,1.33,0,0,0,1.327-1.258c.156-2.868,2.007-6.809,4.834-8.442a1.33,1.33,0,0,0-1.33-2.3c-3.785,2.185-5.964,6.987-6.16,10.6A1.33,1.33,0,0,0,327.776,160.583Z" transform="translate(-283.098 -132.128)" fill="#343457"/>
      <path id="Path_25" data-name="Path 25" d="M373.973,65.662l2.756,1.071,1.07,2.753a2.42,2.42,0,0,0,4.513,0l1.071-2.756,2.753-1.07a2.42,2.42,0,0,0,0-4.513l-2.756-1.071-1.07-2.753a2.42,2.42,0,0,0-4.513,0l-1.071,2.756-2.754,1.07a2.42,2.42,0,0,0,0,4.513Zm4.265-3.316a1.33,1.33,0,0,0,.758-.758l1.06-2.728,1.06,2.728a1.33,1.33,0,0,0,.758.758l2.728,1.06-2.728,1.06a1.33,1.33,0,0,0-.758.758l-1.06,2.728L379,65.224a1.33,1.33,0,0,0-.758-.758l-2.728-1.06Z" transform="translate(-322.903 -51.82)" fill="#343457"/>
      <path id="Path_26" data-name="Path 26" d="M188.062,339.386a1.33,1.33,0,1,0,0-2.66h0a1.33,1.33,0,0,0,0,2.66Z" transform="translate(-161.901 -295.408)" fill="#343457"/>
    </g>
  </g>
</svg>
