<svg id="Group_19" data-name="Group 19" xmlns="http://www.w3.org/2000/svg" width="243.934" height="101.525" viewBox="0 0 243.934 101.525">
  <circle id="Ellipse_1" data-name="Ellipse 1" cx="50.763" cy="50.763" r="50.763" fill="#88eab7"/>
  <path id="Path_30" data-name="Path 30" d="M-925.564,3767.567c-.115-.089-.229-.175-.34-.257l-4.405-12.712a1.545,1.545,0,0,0-1.567-.911h-4.374a1.239,1.239,0,0,0-1.239,1.239v6.278q-1.1-.413-2.178-.774l-2.021-5.832a1.544,1.544,0,0,0-1.567-.911h-4.374a1.1,1.1,0,0,0-1.239,1.239v3.05c-.133-.012-.262-.029-.4-.038l-.027-.005,0,0c-.379-.026-.767-.042-1.173-.042h-.03a8.862,8.862,0,0,0-4.309,1.153c-1.949,1.091-5.107,2.706-5.866,2.171a11.327,11.327,0,0,0-3.018-1.123,14.014,14.014,0,0,0-4.963-.884q-5.54,0-8.146,2.952t-2.606,10.278q0,7.435,2.643,10.406c1.762,1.98,4.184,2.97,7.926,2.97.323,0,1.974,8.849,2.622,11.385l.5,7.018v8.383a1.239,1.239,0,0,0,1.239,1.239h4.811a1.239,1.239,0,0,0,1.239-1.239v-4.534a6.594,6.594,0,0,1,2.371.221l.1,4.131a1.264,1.264,0,0,0,.128,1.039,1.021,1.021,0,0,0,.893.382h4.993a1.358,1.358,0,0,0,1.421-1.166l-.033-4.036c2,0,9.843.265,12.191.16l0,3.876a1.278,1.278,0,0,0,1.385,1.166h5.03a1.021,1.021,0,0,0,.893-.382,1.185,1.185,0,0,0,.091-1.039l-.083-4.064c.5-.038,1.991-.079,2.489-.12v4.366a1.239,1.239,0,0,0,1.239,1.239h4.811a1.239,1.239,0,0,0,1.239-1.239s4.312-16.251,5.3-25.251C-913.123,3779.761-919.511,3772.224-925.564,3767.567Zm-24.9,9.062a1.709,1.709,0,0,1-1.686-1.115,12.562,12.562,0,0,1-.486-4.317,12.557,12.557,0,0,1,.486-4.316,1.708,1.708,0,0,1,1.686-1.115,1.738,1.738,0,0,1,1.251.461,2.043,2.043,0,0,1,.45.654,12.219,12.219,0,0,1,.5,4.316,12.224,12.224,0,0,1-.5,4.317,2.05,2.05,0,0,1-.45.654A1.741,1.741,0,0,1-950.46,3776.629Z" transform="translate(996.784 -3733.096)" fill="#343457"/>
  <path id="Path_31" data-name="Path 31" d="M101.668,3776.6a1.786,1.786,0,0,1,1.248-.167,1.6,1.6,0,0,1,.791.791l1.664,3.536a1.762,1.762,0,0,1,.125,1.082c-.083.25-.374.5-.832.791a14.636,14.636,0,0,1-8.279,2.122c-4.2,0-7.489-1.165-9.86-3.536s-3.536-5.991-3.536-10.9c0-4.95,1.165-8.57,3.453-10.9s5.575-3.495,9.735-3.495a14.728,14.728,0,0,1,8.154,2.08,2.178,2.178,0,0,1,.832.791,1.313,1.313,0,0,1-.125,1.082l-1.623,3.495a1.1,1.1,0,0,1-.749.79,2.009,2.009,0,0,1-1.248-.166,10.214,10.214,0,0,0-3.786-.708c-2.163,0-3.7.541-4.576,1.581-.915,1.04-1.373,2.87-1.373,5.45,0,2.538.458,4.368,1.415,5.408.957,1.082,2.5,1.581,4.7,1.581A8.512,8.512,0,0,0,101.668,3776.6Z" transform="translate(33.804 -3735.122)" fill="#88eab7"/>
  <path id="Path_32" data-name="Path 32" d="M350.224,3759.9c2.247,2.371,3.37,5.991,3.37,10.9s-1.123,8.529-3.37,10.9-5.408,3.536-9.444,3.536-7.2-1.165-9.444-3.536-3.37-5.991-3.37-10.9,1.123-8.529,3.37-10.9,5.408-3.536,9.444-3.536S347.978,3757.532,350.224,3759.9Zm-6.324,16.308a11.021,11.021,0,0,0,1.04-5.45c0-2.538-.333-4.326-1.04-5.45a3.352,3.352,0,0,0-3.12-1.664,3.4,3.4,0,0,0-3.12,1.664,11.023,11.023,0,0,0-1.04,5.45c0,2.538.333,4.327,1.04,5.45a3.757,3.757,0,0,0,6.24,0Z" transform="translate(-188.251 -3735.525)" fill="#88eab7"/>
  <path id="Path_33" data-name="Path 33" d="M652.8,3788.163a1.239,1.239,0,0,1-1.414,1.414H645.9a1.774,1.774,0,0,1-1.706-.873l-6.948-12.606v12.065a1.239,1.239,0,0,1-1.414,1.414h-5.45a1.239,1.239,0,0,1-1.414-1.414v-25.045a1.24,1.24,0,0,1,1.414-1.415h5.533a1.774,1.774,0,0,1,1.706.874l6.948,12.606v-12.065a1.24,1.24,0,0,1,1.414-1.415h5.45a1.24,1.24,0,0,1,1.415,1.415v25.045Z" transform="translate(-461.085 -3740.361)" fill="#88eab7"/>
  <path id="Path_34" data-name="Path 34" d="M126.133,4122.4a1.239,1.239,0,0,1-1.414,1.415h-5.741a1.239,1.239,0,0,1-1.415-1.415v-8.861l-8.653-15.809a1.151,1.151,0,0,1-.042-1.207,1.042,1.042,0,0,1,1-.541h5.991a1.905,1.905,0,0,1,1.872,1.29l2.787,6.241,1.248,3.411h.166l1.248-3.411,2.787-6.241a1.979,1.979,0,0,1,1.872-1.29h5.991a1.042,1.042,0,0,1,1,.541,1.249,1.249,0,0,1-.042,1.207l-8.653,15.809v8.861Z" transform="translate(10.483 -4043.36)" fill="#88eab7"/>
  <path id="Path_35" data-name="Path 35" d="M356.046,4095.535a1.688,1.688,0,0,1,1.706,1.248l8.154,24.92a1.329,1.329,0,0,1-.042,1.207,1.093,1.093,0,0,1-1.04.458h-5.991a1.638,1.638,0,0,1-1.747-1.29l-.874-3.037h-7.53l-.832,3.037a1.638,1.638,0,0,1-1.747,1.29h-5.991a1.235,1.235,0,0,1-1.04-.458,1.33,1.33,0,0,1-.042-1.207l8.154-24.92a1.657,1.657,0,0,1,1.706-1.248Zm-1.206,16.517-2.247-8.112h-.125l-2.413,8.112Z" transform="translate(-198.171 -4042.956)" fill="#88eab7"/>
  <path id="Path_36" data-name="Path 36" d="M655.945,4123.41A1.24,1.24,0,0,1,654.53,4122v-25.045a1.24,1.24,0,0,1,1.415-1.415h9.9c3.952,0,6.906.791,8.861,2.413,2,1.581,3,4.2,3,7.821s-1,6.241-3,7.822-4.951,2.413-8.861,2.413h-2.787V4122a1.24,1.24,0,0,1-1.415,1.415Zm9.777-14.52a3.606,3.606,0,0,0,2.579-.749,3.125,3.125,0,0,0,.79-2.413,3.063,3.063,0,0,0-.79-2.413,3.891,3.891,0,0,0-2.579-.749h-2.663v6.282l2.663.041Z" transform="translate(-484.257 -4042.956)" fill="#88eab7"/>
  <path id="Path_37" data-name="Path 37" d="M934.268,4123.41a1.24,1.24,0,0,1-1.414-1.415v-25.045a1.24,1.24,0,0,1,1.414-1.415h9.9c3.952,0,6.906.791,8.862,2.413,2,1.581,3,4.2,3,7.821s-1,6.241-3,7.822S948.081,4116,944.17,4116h-2.787V4122a1.24,1.24,0,0,1-1.414,1.415Zm9.777-14.52a3.606,3.606,0,0,0,2.579-.749,3.125,3.125,0,0,0,.791-2.413,3.063,3.063,0,0,0-.791-2.413,3.891,3.891,0,0,0-2.579-.749h-2.663v6.282l2.663.041Z" transform="translate(-736.538 -4042.956)" fill="#88eab7"/>
  <path id="Path_38" data-name="Path 38" d="M1169.091,4095.535a1.688,1.688,0,0,1,1.706,1.248l8.154,24.92a1.329,1.329,0,0,1-.042,1.207,1.093,1.093,0,0,1-1.04.458h-5.991a1.638,1.638,0,0,1-1.747-1.29l-.874-3.037h-7.53l-.832,3.037a1.638,1.638,0,0,1-1.747,1.29h-5.991a1.235,1.235,0,0,1-1.04-.458,1.33,1.33,0,0,1-.042-1.207l8.154-24.92a1.657,1.657,0,0,1,1.706-1.248Zm-1.206,16.517-2.247-8.112h-.125l-2.413,8.112Z" transform="translate(-935.137 -4042.956)" fill="#88eab7"/>
</svg>





