<svg xmlns="http://www.w3.org/2000/svg" width="349.582" height="325.416" viewBox="0 0 349.582 325.416">
  <path id="Path_42" data-name="Path 42" d="M266.918,229.43q-.858.66-1.685,1.271l-21.841,63.022q-1.987,4.518-7.77,4.518H213.938a6.143,6.143,0,0,1-6.144-6.143V260.972q-5.447,2.047-10.8,3.835l-10.021,28.916q-1.987,4.518-7.771,4.518H157.522q-6.143,0-6.144-6.144V276.974c-.657.062-1.3.141-1.97.188l-.135.025.014-.018c-1.877.128-3.8.211-5.817.211h-.149a43.951,43.951,0,0,1-21.363-5.714c-9.664-5.412-25.321-13.418-29.083-10.764-3.061,2.159-9.663,4.185-14.961,5.566a69.476,69.476,0,0,1-24.608,4.384q-27.465,0-40.386-14.636T0,205.259q0-36.863,13.1-51.59c8.734-9.817,20.745-14.727,39.3-14.727,1.6,0,9.786-43.871,13-56.444L67.893,47.7V6.144A6.144,6.144,0,0,1,74.036,0H97.889a6.143,6.143,0,0,1,6.143,6.143V28.622s7.161.643,11.753-1.094l.5-20.48q-.722-3.253.633-5.15A5.063,5.063,0,0,1,121.348,0H146.1q5.6,0,7.047,5.782l-.165,20.01c9.905.019,48.8-1.312,60.443-.793l-.01-19.217Q214.5,0,220.286,0h24.936a5.064,5.064,0,0,1,4.427,1.9q1.355,1.9.451,5.15L249.688,27.2c2.5.19,9.872.39,12.339.593V6.144A6.144,6.144,0,0,1,268.17,0h23.852a6.144,6.144,0,0,1,6.144,6.144s21.377,80.573,26.291,125.194C328.6,168.975,296.928,206.341,266.918,229.43ZM143.491,184.5a8.471,8.471,0,0,0-8.361,5.527q-2.409,5.527-2.409,21.4t2.409,21.4a8.471,8.471,0,0,0,8.361,5.527,8.623,8.623,0,0,0,6.2-2.285,10.149,10.149,0,0,0,2.23-3.242q2.479-5.527,2.48-21.4t-2.48-21.4a10.141,10.141,0,0,0-2.23-3.241A8.623,8.623,0,0,0,143.491,184.5Z" transform="matrix(-0.996, -0.087, 0.087, -0.996, 323.589, 325.416)" fill="#ffffff"/>
</svg>
