<svg xmlns="http://www.w3.org/2000/svg" width="96" height="96" viewBox="0 0 96 96">
  <g id="Group_32" data-name="Group 32" transform="translate(-952 -1533)">
    <circle id="Ellipse_3" data-name="Ellipse 3" cx="48" cy="48" r="48" transform="translate(952 1533)" fill="#88eab7"/>
    <g id="atm" transform="translate(967.032 1557.714)">
      <g id="Group_13" data-name="Group 13" transform="translate(0 0)">
        <g id="Group_12" data-name="Group 12" transform="translate(0 0)">
          <g id="Path_27" data-name="Path 27" transform="translate(0 -42.667)" fill="#343457">
            <path d="M 48.49239730834961 95.94736480712891 L 16.16413688659668 95.94736480712891 C 15.0095157623291 95.94736480712891 14.07015609741211 95.00801086425781 14.07015609741211 93.85337829589844 L 14.07015609741211 69.607177734375 L 14.07015609741211 69.00717926025391 L 13.47015571594238 69.00717926025391 L 8.082066535949707 69.00717926025391 C 3.956446170806885 69.00717926025391 0.6000061631202698 65.65073394775391 0.6000061631202698 61.52510833740234 L 0.6000061631202698 50.74905776977539 C 0.6000061631202698 46.62343597412109 3.956446170806885 43.26699829101563 8.082066535949707 43.26699829101563 L 56.57446670532227 43.26699829101563 C 60.70009613037109 43.26699829101563 64.05653381347656 46.62343597412109 64.05653381347656 50.74905776977539 L 64.05653381347656 61.52510833740234 C 64.05653381347656 65.65073394775391 60.70009613037109 69.00717926025391 56.57446670532227 69.00717926025391 L 51.18637466430664 69.00717926025391 L 50.58637619018555 69.00717926025391 L 50.58637619018555 69.607177734375 L 50.58637619018555 93.85337829589844 C 50.58637619018555 95.00801086425781 49.64701461791992 95.94736480712891 48.49239730834961 95.94736480712891 Z M 18.25810623168945 58.23112869262695 L 18.25810623168945 58.83112716674805 L 18.25810623168945 91.15940093994141 L 18.25810623168945 91.7593994140625 L 18.85810661315918 91.7593994140625 L 45.79841613769531 91.7593994140625 L 46.39841461181641 91.7593994140625 L 46.39841461181641 91.15940093994141 L 46.39828491210938 58.83112716674805 L 46.39828491210938 58.23112869262695 L 45.79828643798828 58.23112869262695 L 18.85810661315918 58.23112869262695 L 18.25810623168945 58.23112869262695 Z M 50.58637619018555 58.23099899291992 L 50.58637619018555 58.83099746704102 L 50.58637619018555 64.21910095214844 L 50.58637619018555 64.81909942626953 L 51.18637466430664 64.81909942626953 L 56.57446670532227 64.81909942626953 C 58.39076614379883 64.81909942626953 59.86843490600586 63.3414192199707 59.86843490600586 61.52510833740234 L 59.86843490600586 50.74905776977539 C 59.86843490600586 48.93274688720703 58.39076614379883 47.455078125 56.57446670532227 47.455078125 L 8.082066535949707 47.455078125 C 6.265756130218506 47.455078125 4.7880859375 48.93274688720703 4.7880859375 50.74905776977539 L 4.7880859375 61.52509689331055 C 4.7880859375 63.3414192199707 6.265756130218506 64.81909942626953 8.082066535949707 64.81909942626953 L 13.47002601623535 64.81909942626953 L 14.07002639770508 64.81909942626953 L 14.07002639770508 64.21910095214844 L 14.07002639770508 58.83099746704102 L 14.07002639770508 58.23099899291992 L 13.47002601623535 58.23099899291992 L 10.77604579925537 58.23099899291992 C 9.621426582336426 58.23099899291992 8.682065963745117 57.29164886474609 8.682065963745117 56.13702774047852 C 8.682065963745117 54.98239898681641 9.621426582336426 54.04303741455078 10.77604579925537 54.04303741455078 L 16.16413688659668 54.04303741455078 L 48.49239730834961 54.04303741455078 L 53.88048553466797 54.04303741455078 C 55.03503799438477 54.04303741455078 55.97433471679688 54.98239898681641 55.97433471679688 56.13702774047852 C 55.97433471679688 57.29164886474609 55.03497695922852 58.23099899291992 53.88035583496094 58.23099899291992 L 51.18637466430664 58.23099899291992 L 50.58637619018555 58.23099899291992 Z" stroke="none"/>
            <path d="M 8.082065582275391 43.86699676513672 C 4.287277221679688 43.86699676513672 1.199996948242188 46.95427703857422 1.199996948242188 50.74905395507813 L 1.199996948242188 61.52510833740234 C 1.199996948242188 65.31990051269531 4.287277221679688 68.40718078613281 8.082065582275391 68.40718078613281 L 13.47015762329102 68.40718078613281 L 14.6701545715332 68.40718078613281 L 14.6701545715332 69.607177734375 L 14.6701545715332 93.85337829589844 C 14.6701545715332 94.67715454101563 15.34034729003906 95.34735870361328 16.16412734985352 95.34735870361328 L 48.49239349365234 95.34735870361328 C 49.31617736816406 95.34735870361328 49.98637390136719 94.67715454101563 49.98637390136719 93.85337829589844 L 49.98637390136719 69.607177734375 L 49.98637390136719 68.40718078613281 L 51.18637847900391 68.40718078613281 L 56.57446670532227 68.40718078613281 C 60.36924743652344 68.40718078613281 63.45652770996094 65.31990051269531 63.45652770996094 61.52510833740234 L 63.45652770996094 50.74905395507813 C 63.45652770996094 46.95427703857422 60.36924743652344 43.86699676513672 56.57446670532227 43.86699676513672 L 8.082065582275391 43.86699676513672 M 56.57446670532227 65.41909790039063 L 51.18637847900391 65.41909790039063 L 49.98637390136719 65.41909790039063 L 49.98637390136719 64.21910095214844 L 49.98637390136719 58.83100128173828 L 49.98637390136719 57.63099670410156 L 51.18637847900391 57.63099670410156 L 53.88035583496094 57.63099670410156 C 54.70413589477539 57.63099670410156 55.37433624267578 56.96080780029297 55.37433624267578 56.13702392578125 C 55.37433624267578 55.31324005126953 54.70419692993164 54.64303588867188 53.88047790527344 54.64303588867188 L 48.49239349365234 54.64303588867188 L 16.16412734985352 54.64303588867188 L 10.77604675292969 54.64303588867188 C 9.952266693115234 54.64303588867188 9.282066345214844 55.31324005126953 9.282066345214844 56.13702392578125 C 9.282066345214844 56.96080780029297 9.952266693115234 57.63099670410156 10.77604675292969 57.63099670410156 L 13.47002792358398 57.63099670410156 L 14.67002487182617 57.63099670410156 L 14.67002487182617 58.83100128173828 L 14.67002487182617 64.21910095214844 L 14.67002487182617 65.41909790039063 L 13.47002792358398 65.41909790039063 L 8.082065582275391 65.41909790039063 C 5.934917449951172 65.41909790039063 4.188087463378906 63.67225646972656 4.188087463378906 61.52510070800781 L 4.188087463378906 50.74905395507813 C 4.188087463378906 48.60190582275391 5.934917449951172 46.85507965087891 8.082065582275391 46.85507965087891 L 56.57446670532227 46.85507965087891 C 58.72160720825195 46.85507965087891 60.46843719482422 48.60190582275391 60.46843719482422 50.74905395507813 L 60.46843719482422 61.52510833740234 C 60.46843719482422 63.67225646972656 58.72160720825195 65.41909790039063 56.57446670532227 65.41909790039063 M 46.99828338623047 91.15939331054688 L 45.79841613769531 91.15939331054688 L 45.79841613769531 92.35939025878906 L 18.85810470581055 92.35939025878906 L 17.65810775756836 92.35939025878906 L 17.65810775756836 91.15939331054688 L 17.65810775756836 58.83111572265625 L 17.65810775756836 57.63111877441406 L 18.85810470581055 57.63111877441406 L 45.79828643798828 57.63111877441406 L 46.99828338623047 57.63111877441406 L 46.99828338623047 58.83111572265625 L 46.99828338623047 91.15939331054688 M 45.7983512878418 91.15939331054688 L 45.79828643798828 92.35939025878906 L 45.7983512878418 91.15939331054688 M 8.082065582275391 42.66699981689453 L 56.57446670532227 42.66699981689453 C 61.03032684326172 42.66699981689453 64.65652465820313 46.29306793212891 64.65652465820313 50.74905395507813 L 64.65652465820313 61.52510833740234 C 64.65652465820313 65.98099517822266 61.03032684326172 69.607177734375 56.57446670532227 69.607177734375 L 51.18637847900391 69.607177734375 L 51.18637847900391 93.85337829589844 C 51.18637847900391 95.34311676025391 49.98214721679688 96.54736328125 48.49239349365234 96.54736328125 L 16.16412734985352 96.54736328125 C 14.67703628540039 96.54736328125 13.47015762329102 95.34311676025391 13.47015762329102 93.85337829589844 L 13.47015762329102 69.607177734375 L 8.082065582275391 69.607177734375 C 3.626197814941406 69.607177734375 -7.62939453125e-06 65.98099517822266 -7.62939453125e-06 61.52510833740234 L -7.62939453125e-06 50.74905395507813 C -7.62939453125e-06 46.29319763183594 3.626197814941406 42.66699981689453 8.082065582275391 42.66699981689453 Z M 56.57446670532227 64.21910095214844 C 58.06155776977539 64.21910095214844 59.26843643188477 63.00954437255859 59.26843643188477 61.52510833740234 L 59.26843643188477 50.74905395507813 C 59.26843643188477 49.26473999023438 58.06155776977539 48.05507659912109 56.57446670532227 48.05507659912109 L 8.082065582275391 48.05507659912109 C 6.597747802734375 48.05507659912109 5.388084411621094 49.26461029052734 5.388084411621094 50.74905395507813 L 5.388084411621094 61.52510070800781 C 5.388084411621094 63.00943756103516 6.597614288330078 64.21910095214844 8.082065582275391 64.21910095214844 L 13.47002792358398 64.21910095214844 L 13.47002792358398 58.83100128173828 L 10.77604675292969 58.83100128173828 C 9.288944244384766 58.83100128173828 8.082065582275391 57.62411499023438 8.082065582275391 56.13702392578125 C 8.082065582275391 54.64992523193359 9.288944244384766 53.44303894042969 10.77604675292969 53.44303894042969 L 16.16412734985352 53.44303894042969 L 48.49239349365234 53.44303894042969 L 53.88047790527344 53.44303894042969 C 55.37022399902344 53.44303894042969 56.57433700561523 54.64992523193359 56.57433700561523 56.13702392578125 C 56.57433700561523 57.62411499023438 55.3701171875 58.83100128173828 53.88035583496094 58.83100128173828 L 51.18637847900391 58.83100128173828 L 51.18637847900391 64.21910095214844 L 56.57446670532227 64.21910095214844 Z M 45.79828643798828 91.15939331054688 L 45.79828643798828 58.83111572265625 L 18.85810470581055 58.83111572265625 L 18.85810470581055 91.15939331054688 L 45.79841613769531 91.15939331054688 L 45.79828643798828 91.15939331054688 L 45.79841613769531 91.15939331054688 Z" stroke="none" fill="#88eab7"/>
          </g>
        </g>
      </g>
      <g id="Group_15" data-name="Group 15" transform="translate(26.294 20.878)">
        <g id="Group_14" data-name="Group 14" transform="translate(0 0)">
          <path id="Path_28" data-name="Path 28" d="M215.325,217.022v-4.014a9.146,9.146,0,0,1,2.479,1.051,1.225,1.225,0,0,0,.485,0,1.348,1.348,0,0,0,1.374-1.32,1.1,1.1,0,0,0-.269-.7,6.516,6.516,0,0,0-4.068-1.7v-1.428a.944.944,0,0,0-.943-.916h-.03a.94.94,0,0,0-.967.916v1.4a4.847,4.847,0,0,0-4.984,4.58c0,3.1,2.559,3.96,4.984,4.58V224a6.466,6.466,0,0,1-3.1-1.32,1.3,1.3,0,0,0-.781-.269,1.348,1.348,0,0,0-1.293,1.347,1.124,1.124,0,0,0,.269.727,7.318,7.318,0,0,0,4.9,1.994v1.377a.973.973,0,0,0,1.94-.03v-1.347c3.5-.323,4.984-2.4,5.092-4.714C220.417,218.611,217.75,217.668,215.325,217.022Zm-1.94-.593c-1.239-.35-2.128-.673-2.128-1.724s.835-1.778,2.128-1.913Zm1.94,7.57v-4.014c1.266.377,2.209,1.078,2.209,1.967S216.915,223.757,215.325,224Z" transform="translate(-208.213 -207.996)" fill="#343457"/>
        </g>
      </g>
    </g>
  </g>
</svg>
