<svg xmlns="http://www.w3.org/2000/svg" width="96" height="96" viewBox="0 0 96 96">
  <g id="Group_30" data-name="Group 30" transform="translate(-952 -1189)">
    <circle id="Ellipse_1" data-name="Ellipse 1" cx="48" cy="48" r="48" transform="translate(952 1189)" fill="#88eab7"/>
    <g id="Group_4" data-name="Group 4" transform="translate(967.547 1200.279)">
      <path id="Path_2" data-name="Path 2" d="M78.038,68.184H76.977a27.165,27.165,0,0,0-7.9-10.931V57.24a7.3,7.3,0,0,1,1.173-5.975,3.458,3.458,0,0,0-.014-3.741,3.5,3.5,0,0,0-3.392-1.591,14.534,14.534,0,0,0-9.8,5.039,34.808,34.808,0,0,0-5.109-1.005,1.673,1.673,0,0,0-.391,3.322A30.882,30.882,0,0,1,57.2,54.5a1.682,1.682,0,0,0,1.9-.656c1.2-1.773,3.588-4.02,8.18-4.593a.143.143,0,0,1,.154.07.14.14,0,0,1,0,.168,10.586,10.586,0,0,0-1.55,8.669V58.2a1.651,1.651,0,0,0,.628,1.256,23.6,23.6,0,0,1,7.72,10.917,1.681,1.681,0,0,0,1.591,1.159h2.248a1.376,1.376,0,0,1,1.382,1.382v7.538a1.376,1.376,0,0,1-1.382,1.382H75.944a1.675,1.675,0,0,0-1.605,1.187,23.2,23.2,0,0,1-6.882,10.484l-.028.028-.014.014c-.126.112-.251.209-.377.321-.014.014-.028.028-.042.028a11.643,11.643,0,0,0-3.965,8.139v2.513H52.966V102.19a1.678,1.678,0,0,0-1.857-1.661c-1.117.112-2.234.181-3.35.181a33.214,33.214,0,0,1-4.258-.279,1.653,1.653,0,0,0-1.326.4,1.687,1.687,0,0,0-.572,1.256v2.471H31.538v-.81a15.866,15.866,0,0,0-4.272-10.163A25.039,25.039,0,0,1,22.7,86.653c-.014-.028-.014-.042-.028-.056A21.515,21.515,0,0,1,20.9,81.865c0-.014-.014-.028-.014-.042v-.028a20.725,20.725,0,0,1-.586-4.9,20.289,20.289,0,0,1,.293-3.448,1.676,1.676,0,1,0-3.308-.544,24,24,0,0,0-.335,4.006,24.681,24.681,0,0,0,.656,5.626.259.259,0,0,0,.028.1.2.2,0,0,1,.014.084,25.232,25.232,0,0,0,2.024,5.4,28.011,28.011,0,0,0,5.193,7.831,12.486,12.486,0,0,1,3.322,7.943v.852a.858.858,0,0,0,.014.2,3.33,3.33,0,0,0,3.308,2.987H41.617a3.336,3.336,0,0,0,3.336-3.336v-.628a36.905,36.905,0,0,0,4.649.07v.572a3.336,3.336,0,0,0,3.336,3.336H63.045a3.336,3.336,0,0,0,3.336-3.336v-2.471a8.332,8.332,0,0,1,2.848-5.71l.377-.335.028-.028c.028-.028.07-.056.1-.084a26.805,26.805,0,0,0,7.4-10.777h.907a4.736,4.736,0,0,0,4.732-4.732V72.93A4.739,4.739,0,0,0,78.038,68.184Z" transform="translate(-14.842 -39.497)" fill="#343457"/>
      <path id="Path_3" data-name="Path 3" d="M18.253,32.806A16.4,16.4,0,1,0,1.85,16.4,16.42,16.42,0,0,0,18.253,32.806Zm0-29.455A13.052,13.052,0,1,1,5.2,16.4,13.059,13.059,0,0,1,18.253,3.35Z" transform="translate(-1.85)" fill="#343457"/>
    </g>
  </g>
</svg>
