<svg xmlns="http://www.w3.org/2000/svg" width="95.615" height="95.615" viewBox="0 0 95.615 95.615">
  <g id="Group_30" data-name="Group 30" transform="translate(-952 -1303.468)">
    <g id="Group_1" data-name="Group 1" transform="translate(952 1303.468)">
      <path id="Path_39" data-name="Path 39" d="M47.807,0A47.8,47.8,0,1,1,19.957,8.946,47.807,47.807,0,0,1,47.807,0Z" transform="translate(0 0)" fill="#88eab7"/>
    </g>
    <g id="Group_5" data-name="Group 5" transform="translate(970.731 1319.109)">
      <path id="Path_4" data-name="Path 4" d="M35.344,94.285a29.449,29.449,0,0,0,15.106,25.7l-6.229,7.266H40.052a1.177,1.177,0,0,0,0,2.354H51.825a1.177,1.177,0,1,0,0-2.354H47.319l5.292-6.174a29.379,29.379,0,0,0,23.476.381l4.964,5.792H76.546a1.177,1.177,0,1,0,0,2.354H88.318a1.177,1.177,0,1,0,0-2.354H84.149L78.3,120.419a29.454,29.454,0,0,0,11.215-10.2,1.177,1.177,0,0,0-1.978-1.276,27.076,27.076,0,1,1,4.311-14.661q0,.568-.024,1.129a1.178,1.178,0,0,0,2.355.1c.015-.4.023-.815.023-1.226a29.43,29.43,0,0,0-58.86,0Zm0,0" transform="translate(-35.344 -64.855)" fill="#343457" stroke="#343457" stroke-width="1"/>
      <path id="Path_5" data-name="Path 5" d="M331.922,597.664a3.532,3.532,0,1,0,3.532,3.532A3.532,3.532,0,0,0,331.922,597.664Zm0,4.709A1.177,1.177,0,1,1,333.1,601.2,1.177,1.177,0,0,1,331.922,602.373Zm0,0" transform="translate(-302.492 -550.577)" fill="#343457" stroke="#343457" stroke-width="1"/>
      <path id="Path_6" data-name="Path 6" d="M225.359,564.767a3.532,3.532,0,1,0-3.531-3.532A3.532,3.532,0,0,0,225.359,564.767Zm0-4.71a1.177,1.177,0,1,1-1.177,1.177A1.178,1.178,0,0,1,225.359,560.057Zm0,0" transform="translate(-205.347 -514.147)" fill="#343457" stroke="#343457" stroke-width="1"/>
      <path id="Path_7" data-name="Path 7" d="M331.922,491.105a3.532,3.532,0,1,0,3.532,3.531A3.531,3.531,0,0,0,331.922,491.105Zm0,4.709a1.177,1.177,0,1,1,1.177-1.178A1.177,1.177,0,0,1,331.922,495.814Zm0,0" transform="translate(-302.492 -453.435)" fill="#343457" stroke="#343457" stroke-width="1"/>
      <path id="Path_8" data-name="Path 8" d="M442.016,561.235a3.532,3.532,0,1,0-3.532,3.532A3.532,3.532,0,0,0,442.016,561.235Zm-4.709,0a1.177,1.177,0,1,1,1.178,1.178A1.178,1.178,0,0,1,437.307,561.235Zm0,0" transform="translate(-399.637 -514.147)" fill="#343457" stroke="#343457" stroke-width="1"/>
      <path id="Path_9" data-name="Path 9" d="M128.586,481.313a3.532,3.532,0,1,0,3.531-3.532A3.531,3.531,0,0,0,128.586,481.313Zm4.708,0a1.177,1.177,0,1,1-1.177-1.177A1.177,1.177,0,0,1,133.294,481.313Zm0,0" transform="translate(-120.346 -441.288)" fill="#343457" stroke="#343457" stroke-width="1"/>
      <path id="Path_10" data-name="Path 10" d="M175.607,321.469A3.532,3.532,0,1,0,172.075,325,3.532,3.532,0,0,0,175.607,321.469Zm-4.709,0a1.178,1.178,0,1,1,1.178,1.178A1.177,1.177,0,0,1,170.9,321.469Zm0,0" transform="translate(-156.771 -295.571)" fill="#343457" stroke="#343457" stroke-width="1"/>
      <path id="Path_11" data-name="Path 11" d="M242.212,454.676a3.532,3.532,0,1,0-3.532,3.531A3.531,3.531,0,0,0,242.212,454.676Zm-3.532,1.177a1.177,1.177,0,1,1,1.177-1.177A1.177,1.177,0,0,1,238.68,455.853Zm0,0" transform="translate(-217.491 -417.006)" fill="#343457" stroke="#343457" stroke-width="1"/>
      <path id="Path_12" data-name="Path 12" d="M501.555,241.554a3.531,3.531,0,1,0,3.531-3.531A3.531,3.531,0,0,0,501.555,241.554Zm4.709,0a1.177,1.177,0,1,1-1.178-1.177A1.177,1.177,0,0,1,506.263,241.554Zm0,0" transform="translate(-460.353 -222.72)" fill="#343457" stroke="#343457" stroke-width="1"/>
      <path id="Path_13" data-name="Path 13" d="M318.6,178.481a3.532,3.532,0,1,0-3.532-3.532A3.531,3.531,0,0,0,318.6,178.481Zm0-4.709a1.177,1.177,0,1,1-1.178,1.178A1.177,1.177,0,0,1,318.6,173.772Zm0,0" transform="translate(-290.349 -162)" fill="#343457" stroke="#343457" stroke-width="1"/>
      <path id="Path_14" data-name="Path 14" d="M307.578,333.579a3.534,3.534,0,0,1,1.766.471,1.177,1.177,0,0,0,1.178-2.036,5.886,5.886,0,1,0,.941,9.512,1.177,1.177,0,0,0-1.557-1.766,3.532,3.532,0,1,1-2.328-6.181Zm0,0" transform="translate(-278.148 -307.681)" fill="#343457" stroke="#343457" stroke-width="1"/>
      <path id="Path_15" data-name="Path 15" d="M386.816,390.425a4.707,4.707,0,0,0-4.542,3.532h-8.61a1.179,1.179,0,0,1-.832-.345l-8.038-8.038a3.51,3.51,0,0,0-2.5-1.035h-6.089a1.177,1.177,0,0,0,0,2.355H362.3a1.175,1.175,0,0,1,.832.345l8.038,8.038a3.5,3.5,0,0,0,2.5,1.035h8.61a4.7,4.7,0,1,0,4.542-5.886Zm0,7.063a2.354,2.354,0,1,1,2.354-2.354A2.355,2.355,0,0,1,386.816,397.488Zm0,0" transform="translate(-326.779 -356.286)" fill="#343457" stroke="#343457" stroke-width="1"/>
    </g>
  </g>
</svg>
