<?xml version="1.0" encoding="utf-8"?>
<svg xmlns="http://www.w3.org/2000/svg" width="101.525" height="101.525" viewBox="0 0 101.525 101.525">
    <circle fill="#88EAB7" cx="50.763" cy="50.763" r="50.763"/>
    <path fill="#3C3B63" d="M-925.564,3767.567c-.115-.089-.229-.175-.34-.257l-4.405-12.712a1.545,1.545,0,0,0-1.567-.911h-4.374a1.239,1.239,0,0,0-1.239,1.239v6.278q-1.1-.413-2.178-.774l-2.021-5.832a1.544,1.544,0,0,0-1.567-.911h-4.374a1.1,1.1,0,0,0-1.239,1.239v3.05c-.133-.012-.262-.029-.4-.038l-.027-.005,0,0c-.379-.026-.767-.042-1.173-.042h-.03a8.862,8.862,0,0,0-4.309,1.153c-1.949,1.091-5.107,2.706-5.866,2.171a11.327,11.327,0,0,0-3.018-1.123,14.014,14.014,0,0,0-4.963-.884q-5.54,0-8.146,2.952t-2.606,10.278q0,7.435,2.643,10.406c1.762,1.98,4.184,2.97,7.926,2.97.323,0,1.974,8.849,2.622,11.385l.5,7.018v8.383a1.239,1.239,0,0,0,1.239,1.239h4.811a1.239,1.239,0,0,0,1.239-1.239v-4.534a6.594,6.594,0,0,1,2.371.221l.1,4.131a1.264,1.264,0,0,0,.128,1.039,1.021,1.021,0,0,0,.893.382h4.993a1.358,1.358,0,0,0,1.421-1.166l-.033-4.036c2,0,9.843.265,12.191.16l0,3.876a1.278,1.278,0,0,0,1.385,1.166h5.03a1.021,1.021,0,0,0,.893-.382,1.185,1.185,0,0,0,.091-1.039l-.083-4.064c.5-.038,1.991-.079,2.489-.12v4.366a1.239,1.239,0,0,0,1.239,1.239h4.811a1.239,1.239,0,0,0,1.239-1.239s4.312-16.251,5.3-25.251C-913.123,3779.761-919.511,3772.224-925.564,3767.567Zm-24.9,9.062a1.709,1.709,0,0,1-1.686-1.115,12.562,12.562,0,0,1-.486-4.317,12.557,12.557,0,0,1,.486-4.316,1.708,1.708,0,0,1,1.686-1.115,1.738,1.738,0,0,1,1.251.461,2.043,2.043,0,0,1,.45.654,12.219,12.219,0,0,1,.5,4.316,12.224,12.224,0,0,1-.5,4.317,2.05,2.05,0,0,1-.45.654A1.741,1.741,0,0,1-950.46,3776.629Z" transform="translate(996.784 -3733.096)"/>
</svg>
